<svg width="89" height="19" viewBox="0 0 89 19" fill="none" xmlns="http://www.w3.org/2000/svg">
<line x1="4.18115" y1="9.27954" x2="81.5902" y2="9.27954" stroke="#CCCCCC" stroke-width="0.74754" stroke-dasharray="2.24 2.24"/>
<g clip-path="url(#clip0_1038_1229)">
<path d="M43.487 16.694H42.4663C42.3637 16.6939 42.2628 16.6704 42.1728 16.6255C42.0827 16.5807 42.0064 16.5159 41.9508 16.4371C41.8953 16.3583 41.8622 16.2681 41.8546 16.1746C41.8471 16.0811 41.8653 15.9874 41.9076 15.9021L44.3793 10.9175L40.6679 10.8421L39.3144 12.3408C39.0563 12.6373 38.8504 12.7694 38.3251 12.7694H37.638C37.5292 12.7726 37.4212 12.7518 37.323 12.7087C37.2249 12.6657 37.1396 12.6016 37.0743 12.522C36.9831 12.4095 36.8934 12.2189 36.9808 11.947L37.7408 9.45908C37.7465 9.44051 37.7534 9.42194 37.7611 9.40372C37.7615 9.40198 37.7615 9.4002 37.7611 9.39846C37.7532 9.38026 37.7464 9.36165 37.7408 9.34275L36.98 6.83907C36.8976 6.57241 36.9877 6.38599 37.0782 6.27632C37.1389 6.20263 37.2178 6.143 37.3083 6.10223C37.3989 6.06145 37.4987 6.04067 37.5997 6.04154H38.3251C38.7174 6.04154 39.0981 6.20238 39.3221 6.46203L40.6476 7.9355L44.3793 7.88504L41.9084 2.90923C41.866 2.82389 41.8477 2.73021 41.8552 2.63674C41.8627 2.54328 41.8957 2.45302 41.9512 2.37421C42.0067 2.29541 42.0829 2.23057 42.1729 2.18563C42.2629 2.14069 42.3637 2.11708 42.4663 2.11696H43.4981C43.6421 2.1196 43.7835 2.15185 43.912 2.2113C44.0404 2.27075 44.1526 2.35587 44.2401 2.46036L49.035 7.78658L51.2501 7.73332C51.4123 7.72526 51.8617 7.72245 51.9656 7.72245C54.0845 7.72351 55.3499 8.35214 55.3499 9.40547C55.3499 9.73696 55.2049 10.3516 54.2352 10.7426C53.6627 10.9739 52.8989 11.0909 51.9649 11.0909C51.8621 11.0909 51.4139 11.0881 51.2494 11.0801L49.0346 11.0261L44.2278 16.3523C44.1402 16.4564 44.0282 16.5411 43.8999 16.6002C43.7717 16.6593 43.6306 16.6914 43.487 16.694Z" fill="#1262AE"/>
</g>
<circle cx="4.37466" cy="9.65332" r="2.99016" fill="white" stroke="#1262AE" stroke-width="1.49508"/>
<circle cx="84.6235" cy="9.34158" r="2.99016" fill="white" stroke="#1262AE" stroke-width="1.49508"/>
<defs>
<clipPath id="clip0_1038_1229">
<rect width="19.6322" height="17.941" fill="white" transform="translate(36.3312 0.434998)"/>
</clipPath>
</defs>
</svg>
