<svg width="50" height="50" viewBox="0 0 50 50" fill="none" xmlns="http://www.w3.org/2000/svg">
<rect x="0.366837" y="0.719406" width="48.8794" height="48.8794" rx="11.9606" fill="#36DA76"/>
<path d="M31.1365 34.6863C31.0955 33.8091 31.0411 32.9365 30.9976 32.0659C30.857 29.3425 30.8685 26.5792 30.7213 23.8423C30.5742 21.1259 30.6615 18.4077 30.5838 15.6914C30.5682 15.1268 30.5934 14.0119 30.0093 13.6901C28.7527 12.9988 28.0067 14.8845 27.687 15.6522C27.1107 17.0458 26.7777 18.5114 26.3661 19.9551C26.0153 21.1908 25.6158 22.4226 25.4803 23.7021C25.3801 24.6621 25.3893 25.7369 25.8908 26.6019C26.1427 27.0367 26.5781 27.3326 27.074 27.4577C27.5886 27.5893 28.177 27.4169 28.6654 27.6493C28.7913 27.7102 28.9021 27.8366 28.9527 27.9642C29.1109 28.3755 28.9612 28.9996 28.9117 29.4239C28.755 30.791 28.5892 32.1716 28.515 33.5452C28.4711 34.3759 28.4226 35.4398 28.9251 36.1635C29.2332 36.603 29.8574 37.0135 30.4206 36.795C31.2625 36.4728 31.1715 35.3843 31.1365 34.6863Z" fill="white"/>
<path d="M20.4269 14.2965C20.1849 14.3935 20.2767 15.2584 20.2659 15.5242C20.25 16.0017 20.2826 16.6334 20.2251 17.2522C20.2247 17.2578 20.2239 17.2616 20.2231 17.2654C20.2181 17.3084 20.2141 17.3548 20.207 17.4038C20.1995 17.4511 20.1915 17.4967 20.1857 17.5435C20.1341 17.8452 20.0359 18.2025 19.8504 18.3738C19.6397 18.5697 19.1676 18.5285 19.0036 18.297C18.7353 17.9202 18.7555 17.0789 18.7392 17.0541C18.7283 16.6561 18.6703 15.4524 18.5833 14.6587C18.5761 14.5989 18.5645 14.2392 18.2361 14.2007C18.0829 14.1841 17.9218 14.3146 17.8695 14.553C17.7153 15.2567 17.5708 16.598 17.5617 16.8089C17.5599 16.8293 17.559 16.8531 17.5589 16.8731C17.5589 16.8731 17.5581 16.8769 17.5585 16.8786C17.5575 16.9224 17.5054 17.9733 17.2394 18.3358C17.1004 18.5259 16.7396 18.6754 16.381 18.4743C16.2382 18.3933 16.1403 18.2372 16.0713 18.0701C15.6963 16.9029 16.0329 15.6171 16.0808 15.0044C16.095 14.8321 16.2511 14.2567 15.9029 14.276C15.3787 14.3045 14.7018 16.5379 14.5807 17.0498C14.284 18.3234 14.239 19.6844 14.7552 20.913C15.0419 21.5934 15.6028 22.1503 16.2983 22.4203C16.6056 22.5385 16.9472 22.6244 17.3089 22.6742C17.1788 25.5697 17.031 28.5913 16.8965 30.2728C16.793 31.5382 16.6708 32.8176 16.6872 34.0883C16.697 34.8475 16.689 35.7528 17.1873 36.3893C17.7086 37.0544 18.8082 36.7484 19.1051 35.9626C19.4381 35.0767 19.3412 34.0444 19.2278 32.4179C19.114 30.7897 18.9858 28.5685 18.9152 27.3734C18.8118 25.6137 18.7757 24.076 18.7658 22.673C19.6917 22.5407 20.5553 22.1434 21.0387 21.4128C21.2507 21.0932 21.3903 20.7361 21.4857 20.3687C21.6319 19.8122 21.7032 19.2025 21.6716 18.6285C21.6395 18.1 21.2052 13.9847 20.4269 14.2965Z" fill="white"/>
</svg>
