<svg width="24" height="24" viewBox="0 0 24 24" fill="none" xmlns="http://www.w3.org/2000/svg">
<path d="M16.0325 1.20704C15.54 0.719395 14.8721 0.445465 14.1758 0.445465C13.4794 0.445465 12.8116 0.719395 12.319 1.20704L0.786363 12.6332C0.542454 12.8748 0.348975 13.1617 0.216972 13.4774C0.0849697 13.7931 0.0170288 14.1315 0.0170288 14.4732C0.0170288 14.8149 0.0849697 15.1533 0.216972 15.469C0.348975 15.7847 0.542454 16.0715 0.786363 16.3132L2.15455 17.6674C2.74992 18.2584 3.58693 18.1532 4.09242 17.8548C4.37125 17.6908 4.69729 17.6234 5.01906 17.6634C5.34082 17.7034 5.63997 17.8484 5.86928 18.0756C6.09858 18.3027 6.24497 18.5991 6.28533 18.9179C6.32569 19.2366 6.25772 19.5596 6.09216 19.8359C5.79214 20.3366 5.68474 21.1658 6.28127 21.7556L7.65062 23.1111C7.89453 23.3527 8.18409 23.5444 8.50277 23.6751C8.82145 23.8059 9.16301 23.8732 9.50795 23.8732C9.85288 23.8732 10.1944 23.8059 10.5131 23.6751C10.8318 23.5444 11.1214 23.3527 11.3653 23.1111L22.8968 11.6872C23.1407 11.4456 23.3341 11.1587 23.4661 10.843C23.5982 10.5273 23.6661 10.1889 23.6661 9.84721C23.6661 9.5055 23.5982 9.16712 23.4661 8.85142C23.3341 8.53572 23.1407 8.24886 22.8968 8.00723L21.5297 6.65182C20.9344 6.06201 20.0962 6.16609 19.5907 6.46447C19.3119 6.62849 18.9858 6.69582 18.6641 6.65584C18.3423 6.61585 18.0431 6.47083 17.8138 6.24366C17.5845 6.0165 17.4382 5.72014 17.3978 5.40138C17.3574 5.08262 17.4254 4.75962 17.591 4.48339C17.8922 3.98263 17.9984 3.15342 17.4018 2.56361L16.0337 1.20704H16.0325Z" fill="white"/>
</svg>
