<svg width="50" height="50" viewBox="0 0 50 50" fill="none" xmlns="http://www.w3.org/2000/svg">
<rect x="0.437744" y="0.719391" width="48.8794" height="48.8794" rx="11.9606" fill="#F9668D"/>
<path d="M24.022 21.7672H25.7341V20.9192C25.7341 20.6943 25.8243 20.4786 25.9848 20.3196C26.1453 20.1605 26.3631 20.0712 26.5901 20.0712H29.1581C29.3852 20.0712 29.6029 20.1605 29.7634 20.3196C29.924 20.4786 30.0142 20.6943 30.0142 20.9192V21.7672H33.4382V18.3752C33.4382 17.4756 33.0775 16.6128 32.4353 15.9767C31.7932 15.3406 30.9223 14.9832 30.0142 14.9832H19.7419C18.8338 14.9832 17.9629 15.3406 17.3208 15.9767C16.6786 16.6128 16.3179 17.4756 16.3179 18.3752V21.7672H19.7419V20.9192C19.7419 20.6943 19.8321 20.4786 19.9927 20.3196C20.1532 20.1605 20.3709 20.0712 20.598 20.0712H23.166C23.393 20.0712 23.6108 20.1605 23.7713 20.3196C23.9318 20.4786 24.022 20.6943 24.022 20.9192V21.7672Z" fill="white"/>
<path d="M17.174 23.4632C16.0389 23.4632 14.9503 23.9099 14.1477 24.705C13.345 25.5002 12.8941 26.5786 12.8941 27.7031V34.4871C12.8941 34.712 12.9843 34.9277 13.1448 35.0867C13.3053 35.2457 13.5231 35.3351 13.7501 35.3351C13.9771 35.3351 14.1948 35.2457 14.3554 35.0867C14.5159 34.9277 14.6061 34.712 14.6061 34.4871V30.2471H35.1496V34.4871C35.1496 34.712 35.2398 34.9277 35.4003 35.0867C35.5609 35.2457 35.7786 35.3351 36.0056 35.3351C36.2326 35.3351 36.4504 35.2457 36.6109 35.0867C36.7714 34.9277 36.8616 34.712 36.8616 34.4871V27.7031C36.8616 26.5786 36.4107 25.5002 35.608 24.705C34.8054 23.9099 33.7168 23.4632 32.5817 23.4632H17.174Z" fill="white"/>
</svg>
