<svg width="19" height="19" viewBox="0 0 19 19" fill="none" xmlns="http://www.w3.org/2000/svg">
<g clip-path="url(#clip0_1038_1176)">
<path d="M17.0266 13.9307C16.546 13.5022 16.1253 13.0111 15.7757 12.4705C15.3941 11.7242 15.1654 10.9092 15.1029 10.0734V7.61145C15.1062 6.29858 14.63 5.02969 13.7637 4.04318C12.8974 3.05668 11.7007 2.42047 10.3984 2.25409V1.6112C10.3984 1.43475 10.3283 1.26553 10.2036 1.14076C10.0788 1.01599 9.90956 0.945892 9.73311 0.945892C9.55666 0.945892 9.38743 1.01599 9.26266 1.14076C9.13789 1.26553 9.0678 1.43475 9.0678 1.6112V2.26405C7.77717 2.44243 6.59492 3.08249 5.74001 4.06568C4.88511 5.04887 4.41547 6.30856 4.4181 7.61145V10.0734C4.35568 10.9092 4.12695 11.7242 3.74532 12.4705C3.40189 13.0099 2.98791 13.5009 2.51437 13.9307C2.46121 13.9774 2.4186 14.0348 2.38939 14.0993C2.36017 14.1637 2.34501 14.2337 2.34492 14.3044V14.9822C2.34492 15.1144 2.39743 15.2411 2.49089 15.3346C2.58435 15.428 2.71111 15.4806 2.84328 15.4806H16.6977C16.8299 15.4806 16.9566 15.428 17.0501 15.3346C17.1435 15.2411 17.196 15.1144 17.196 14.9822V14.3044C17.196 14.2337 17.1808 14.1637 17.1516 14.0993C17.1224 14.0348 17.0798 13.9774 17.0266 13.9307ZM3.38151 14.4838C3.84519 14.0359 4.25344 13.534 4.59751 12.9888C5.07823 12.0875 5.35872 11.093 5.4198 10.0734V7.61145C5.40004 7.02739 5.49801 6.44533 5.70788 5.89992C5.91775 5.35451 6.23523 4.85691 6.64141 4.43675C7.04759 4.01659 7.53417 3.68247 8.07217 3.45427C8.61016 3.22608 9.18858 3.10848 9.77298 3.10848C10.3574 3.10848 10.9358 3.22608 11.4738 3.45427C12.0118 3.68247 12.4984 4.01659 12.9045 4.43675C13.3107 4.85691 13.6282 5.35451 13.8381 5.89992C14.0479 6.44533 14.1459 7.02739 14.1261 7.61145V10.0734C14.1872 11.093 14.4677 12.0875 14.9484 12.9888C15.2925 13.534 15.7008 14.0359 16.1644 14.4838H3.38151Z" fill="#424242"/>
<path d="M9.79554 17.1155C10.1095 17.1082 10.4107 16.9902 10.646 16.7823C10.8813 16.5743 11.0355 16.2899 11.0813 15.9792H8.45993C8.50701 16.2983 8.66841 16.5895 8.91409 16.7985C9.15977 17.0075 9.47301 17.1201 9.79554 17.1155Z" fill="#424242"/>
<circle cx="14.622" cy="4.12589" r="2.61639" fill="#F99A0E" stroke="white" stroke-width="0.74754"/>
</g>
<defs>
<clipPath id="clip0_1038_1176">
<rect width="17.941" height="17.941" fill="white" transform="translate(0.825027 0.0614929)"/>
</clipPath>
</defs>
</svg>
