<svg width="14" height="14" viewBox="0 0 14 14" fill="none" xmlns="http://www.w3.org/2000/svg">
<path d="M12.7412 4.74807L9.01138 4.16183L7.34405 0.506187C7.29851 0.406097 7.22359 0.325073 7.13104 0.275822C6.89894 0.151902 6.61689 0.255169 6.50083 0.506187L4.8335 4.16183L1.10367 4.74807C1.00084 4.76396 0.906822 4.81639 0.834841 4.89582C0.747819 4.99255 0.699866 5.12269 0.701518 5.25764C0.703171 5.39259 0.754294 5.52131 0.843655 5.61551L3.54224 8.46091L2.90468 12.4788C2.88973 12.5722 2.8993 12.6684 2.93229 12.7563C2.96528 12.8441 3.02039 12.9203 3.09135 12.976C3.16231 13.0318 3.2463 13.0649 3.33378 13.0716C3.42127 13.0784 3.50875 13.0585 3.58631 13.0142L6.92244 11.1173L10.2586 13.0142C10.3497 13.0666 10.4554 13.0841 10.5568 13.065C10.8124 13.0174 10.9843 12.7552 10.9402 12.4788L10.3026 8.46091L13.0012 5.61551C13.0747 5.53766 13.1232 5.43599 13.1378 5.32478C13.1775 5.04675 12.9983 4.78938 12.7412 4.74807Z" fill="#FDBF00"/>
</svg>
