<svg width="13" height="14" viewBox="0 0 13 14" fill="none" xmlns="http://www.w3.org/2000/svg">
<path d="M12.1665 4.74807L8.43672 4.16183L6.76939 0.506187C6.72385 0.406097 6.64893 0.325073 6.55638 0.275822C6.32428 0.151902 6.04223 0.255169 5.92617 0.506187L4.25885 4.16183L0.529024 4.74807C0.426193 4.76396 0.332176 4.81639 0.260194 4.89582C0.173173 4.99255 0.12522 5.12269 0.126872 5.25764C0.128525 5.39259 0.179648 5.52131 0.269008 5.61551L2.96758 8.46091L2.33003 12.4788C2.31508 12.5722 2.32465 12.6684 2.35764 12.7563C2.39063 12.8441 2.44573 12.9203 2.5167 12.976C2.58766 13.0318 2.67165 13.0649 2.75913 13.0716C2.84661 13.0784 2.9341 13.0585 3.01165 13.0142L6.34778 11.1173L9.68391 13.0142C9.77499 13.0666 9.88076 13.0841 9.98212 13.065C10.2377 13.0174 10.4096 12.7552 10.3655 12.4788L9.72798 8.46091L12.4266 5.61551C12.5 5.53766 12.5485 5.43599 12.5632 5.32478C12.6028 5.04675 12.4236 4.78938 12.1665 4.74807Z" fill="#FDBF00"/>
</svg>
