<svg width="22" height="25" viewBox="0 0 22 25" fill="none" xmlns="http://www.w3.org/2000/svg">
<path d="M0.972122 18.1195C0.972122 19.2159 1.4626 20.2001 2.22976 20.8854V22.4801C2.22976 23.5142 3.07237 24.349 4.11621 24.349C5.16005 24.349 6.00266 23.5142 6.00266 22.4801V21.8572H16.0637V22.4801C16.0637 23.5017 16.9064 24.349 17.9502 24.349C18.9815 24.349 19.8366 23.5142 19.8366 22.4801V20.8854C20.6038 20.2001 21.0943 19.2159 21.0943 18.1195V5.66048C21.0943 1.29983 16.5919 0.67688 11.0332 0.67688C5.47445 0.67688 0.972122 1.29983 0.972122 5.66048V18.1195ZM5.37384 19.3654C4.33001 19.3654 3.48739 18.5306 3.48739 17.4965C3.48739 16.4624 4.33001 15.6277 5.37384 15.6277C6.41768 15.6277 7.2603 16.4624 7.2603 17.4965C7.2603 18.5306 6.41768 19.3654 5.37384 19.3654ZM16.6926 19.3654C15.6487 19.3654 14.8061 18.5306 14.8061 17.4965C14.8061 16.4624 15.6487 15.6277 16.6926 15.6277C17.7364 15.6277 18.579 16.4624 18.579 17.4965C18.579 18.5306 17.7364 19.3654 16.6926 19.3654ZM18.579 11.89H3.48739V5.66048H18.579V11.89Z" fill="white"/>
</svg>
