<svg width="22" height="20" viewBox="0 0 22 20" fill="none" xmlns="http://www.w3.org/2000/svg">
<path d="M19.1364 3.48438C18.9008 2.84118 18.2411 2.38331 17.4635 2.38331H14.5184V1.29315C14.5184 0.693561 13.9882 0.202988 13.3403 0.202988H8.62804C7.9801 0.202988 7.44998 0.693561 7.44998 1.29315V2.38331H4.50481C3.72728 2.38331 3.07935 2.84118 2.83195 3.48438L0.511162 9.66559C0.428697 9.89453 0.381575 10.1344 0.381575 10.3851V18.1907C0.381575 19.0955 1.17088 19.8259 2.14867 19.8259C3.12647 19.8259 3.91577 19.0955 3.91577 18.1907V17.6456H18.0526V18.1907C18.0526 19.0846 18.8419 19.8259 19.8197 19.8259C20.7857 19.8259 21.5868 19.0955 21.5868 18.1907V10.3851C21.5868 10.1453 21.5397 9.89453 21.4572 9.66559L19.1364 3.48438ZM4.50481 14.3751C3.52701 14.3751 2.73771 13.6447 2.73771 12.7399C2.73771 11.835 3.52701 11.1046 4.50481 11.1046C5.4826 11.1046 6.27191 11.835 6.27191 12.7399C6.27191 13.6447 5.4826 14.3751 4.50481 14.3751ZM17.4635 14.3751C16.4857 14.3751 15.6964 13.6447 15.6964 12.7399C15.6964 11.835 16.4857 11.1046 17.4635 11.1046C18.4413 11.1046 19.2306 11.835 19.2306 12.7399C19.2306 13.6447 18.4413 14.3751 17.4635 14.3751ZM2.73771 8.92428L4.50481 4.01855H17.4635L19.2306 8.92428H2.73771Z" fill="white"/>
</svg>
