<svg width="20" height="18" viewBox="0 0 20 18" fill="none" xmlns="http://www.w3.org/2000/svg">
<path d="M18.018 0.45787H2.40394C1.32754 0.45787 0.452179 1.32507 0.452179 2.39143V15.9263C0.452179 16.9927 1.32754 17.8599 2.40394 17.8599H18.018C19.0944 17.8599 19.9698 16.9927 19.9698 15.9263V2.39143C19.9698 1.32507 19.0944 0.45787 18.018 0.45787ZM18.019 6.25854C18.018 6.25854 18.018 6.25854 18.019 6.25854H17.5652L14.9625 2.39143H18.018L18.019 6.25854ZM13.6266 12.0592L8.25922 14.9595V9.15887L13.6266 12.0592ZM12.6858 6.25854L10.0831 2.39143H12.6165L15.2192 6.25854H12.6858ZM10.3398 6.25854H7.80641L5.20374 2.39143H7.73713L10.3398 6.25854ZM2.40394 2.39143H2.85772L5.4604 6.25854H2.40394V2.39143Z" fill="white"/>
</svg>
