<svg width="13" height="14" viewBox="0 0 13 14" fill="none" xmlns="http://www.w3.org/2000/svg">
<path d="M12.5286 4.74807L8.79874 4.16183L7.1314 0.506187C7.08586 0.406097 7.01094 0.325073 6.9184 0.275822C6.68629 0.151902 6.40424 0.255169 6.28819 0.506187L4.62085 4.16183L0.891024 4.74807C0.788193 4.76396 0.694176 4.81639 0.622194 4.89582C0.535172 4.99255 0.487219 5.12269 0.488872 5.25764C0.490525 5.39259 0.541648 5.52131 0.631008 5.61551L3.32959 8.46091L2.69204 12.4788C2.67709 12.5722 2.68665 12.6684 2.71964 12.7563C2.75264 12.8441 2.80774 12.9203 2.8787 12.976C2.94967 13.0318 3.03365 13.0649 3.12114 13.0716C3.20862 13.0784 3.2961 13.0585 3.37366 13.0142L6.7098 11.1173L10.0459 13.0142C10.137 13.0666 10.2428 13.0841 10.3441 13.065C10.5998 13.0174 10.7716 12.7552 10.7276 12.4788L10.09 8.46091L12.7886 5.61551C12.862 5.53766 12.9105 5.43599 12.9252 5.32478C12.9649 5.04675 12.7856 4.78938 12.5286 4.74807Z" fill="#FDBF00"/>
</svg>
