<svg width="14" height="14" viewBox="0 0 14 14" fill="none" xmlns="http://www.w3.org/2000/svg">
<path d="M12.9768 4.74807L9.23977 4.16183L7.56923 0.506187C7.5236 0.406097 7.44853 0.325073 7.35581 0.275822C7.12326 0.151902 6.84066 0.255169 6.72439 0.506187L5.05385 4.16183L1.31685 4.74807C1.21382 4.76396 1.11962 4.81639 1.0475 4.89582C0.96031 4.99255 0.912265 5.12269 0.913921 5.25764C0.915577 5.39259 0.966798 5.52131 1.05633 5.61551L3.7601 8.46091L3.12132 12.4788C3.10634 12.5722 3.11593 12.6684 3.14898 12.7563C3.18204 12.8441 3.23725 12.9203 3.30835 12.976C3.37945 13.0318 3.4636 13.0649 3.55125 13.0716C3.6389 13.0784 3.72655 13.0585 3.80426 13.0142L7.14681 11.1173L10.4894 13.0142C10.5806 13.0666 10.6866 13.0841 10.7881 13.065C11.0442 13.0174 11.2164 12.7552 11.1723 12.4788L10.5335 8.46091L13.2373 5.61551C13.3109 5.53766 13.3594 5.43599 13.3742 5.32478C13.4139 5.04675 13.2343 4.78938 12.9768 4.74807Z" fill="#FDBF00"/>
</svg>
