<svg width="20" height="19" viewBox="0 0 20 19" fill="none" xmlns="http://www.w3.org/2000/svg">
<g clip-path="url(#clip0_1038_1398)">
<path d="M9.98028 17.106C7.93752 17.106 5.97843 16.2945 4.53398 14.85C3.08953 13.4056 2.27805 11.4465 2.27805 9.40374C2.27805 7.36098 3.08953 5.40189 4.53398 3.95744C5.97843 2.513 7.93752 1.70151 9.98028 1.70151C12.023 1.70151 13.9821 2.513 15.4266 3.95744C16.871 5.40189 17.6825 7.36098 17.6825 9.40374C17.6825 11.4465 16.871 13.4056 15.4266 14.85C13.9821 16.2945 12.023 17.106 9.98028 17.106ZM9.98028 18.2063C12.3149 18.2063 14.5538 17.2789 16.2046 15.6281C17.8554 13.9773 18.7828 11.7383 18.7828 9.40374C18.7828 7.06916 17.8554 4.8302 16.2046 3.1794C14.5538 1.5286 12.3149 0.601196 9.98028 0.601196C7.6457 0.601196 5.40674 1.5286 3.75594 3.1794C2.10514 4.8302 1.17773 7.06916 1.17773 9.40374C1.17773 11.7383 2.10514 13.9773 3.75594 15.6281C5.40674 17.2789 7.6457 18.2063 9.98028 18.2063V18.2063Z" fill="#1262AF"/>
<path d="M8.01528 5.66599C8.11907 5.61254 8.23561 5.58876 8.35205 5.59727C8.46849 5.60578 8.58033 5.64625 8.67525 5.71422L13.1174 8.88719C13.1997 8.94589 13.2667 9.02339 13.313 9.11324C13.3593 9.20309 13.3834 9.30269 13.3834 9.40375C13.3834 9.50481 13.3593 9.60441 13.313 9.69426C13.2667 9.7841 13.1997 9.8616 13.1174 9.92031L8.67525 13.0933C8.58036 13.1612 8.46858 13.2016 8.3522 13.2101C8.23581 13.2186 8.11934 13.1949 8.01558 13.1415C7.91181 13.0881 7.82478 13.0072 7.76405 12.9075C7.70331 12.8079 7.67123 12.6934 7.67133 12.5767V6.23078C7.6712 6.11412 7.70324 5.99968 7.76392 5.90004C7.8246 5.8004 7.91157 5.71942 8.01528 5.66599V5.66599Z" fill="#1262AF"/>
</g>
<defs>
<clipPath id="clip0_1038_1398">
<rect width="18.6885" height="18.6885" fill="white" transform="translate(0.635986 0.0595703)"/>
</clipPath>
</defs>
</svg>
