<svg width="19" height="19" viewBox="0 0 19 19" fill="none" xmlns="http://www.w3.org/2000/svg">
<g clip-path="url(#clip0_1038_1444)">
<path d="M9.61823 17.106C7.57547 17.106 5.61638 16.2945 4.17193 14.85C2.72748 13.4056 1.916 11.4465 1.916 9.40374C1.916 7.36098 2.72748 5.40189 4.17193 3.95744C5.61638 2.513 7.57547 1.70151 9.61823 1.70151C11.661 1.70151 13.6201 2.513 15.0645 3.95744C16.509 5.40189 17.3205 7.36098 17.3205 9.40374C17.3205 11.4465 16.509 13.4056 15.0645 14.85C13.6201 16.2945 11.661 17.106 9.61823 17.106ZM9.61823 18.2063C11.9528 18.2063 14.1918 17.2789 15.8426 15.6281C17.4934 13.9773 18.4208 11.7383 18.4208 9.40374C18.4208 7.06916 17.4934 4.8302 15.8426 3.1794C14.1918 1.5286 11.9528 0.601196 9.61823 0.601196C7.28365 0.601196 5.04468 1.5286 3.39389 3.1794C1.74309 4.8302 0.815681 7.06916 0.815681 9.40374C0.815681 11.7383 1.74309 13.9773 3.39389 15.6281C5.04468 17.2789 7.28365 18.2063 9.61823 18.2063Z" fill="#1262AF"/>
<path d="M7.65325 5.66599C7.75705 5.61254 7.87358 5.58876 7.99003 5.59727C8.10647 5.60578 8.21831 5.64625 8.31323 5.71422L12.7554 8.88719C12.8377 8.94589 12.9047 9.02339 12.951 9.11324C12.9972 9.20309 13.0214 9.30269 13.0214 9.40375C13.0214 9.50481 12.9972 9.60441 12.951 9.69425C12.9047 9.7841 12.8377 9.8616 12.7554 9.92031L8.31323 13.0933C8.21834 13.1612 8.10656 13.2016 7.99017 13.2101C7.87379 13.2186 7.75732 13.1949 7.65355 13.1415C7.54979 13.0881 7.46276 13.0072 7.40203 12.9075C7.34129 12.8079 7.30921 12.6934 7.3093 12.5767V6.23078C7.30918 6.11412 7.34122 5.99968 7.4019 5.90004C7.46258 5.8004 7.54955 5.71942 7.65325 5.66599Z" fill="#1262AF"/>
</g>
<defs>
<clipPath id="clip0_1038_1444">
<rect width="18.6885" height="18.6885" fill="white" transform="translate(0.273987 0.0595703)"/>
</clipPath>
</defs>
</svg>
